<?xml version="1.0" standalone="yes"?>
<!DOCTYPE svg PUBLIC "-//W3C//DTD SVG 1.1//EN" "http://www.w3.org/Graphics/SVG/1.1/DTD/svg11.dtd">
<svg viewBox="0 0 100 100" xmlns="http://www.w3.org/2000/svg" version="1.1">
    <path fill="#f44" d="M80.75 5h-61.5C11.393 5 5 11.393 5 19.25v61.5C5 88.607 11.393 95 19.25 95h61.5C88.607 95 95 88.607 95 80.75v-61.5C95 11.393 88.607 5 80.75 5z"></path>
	<path fill="#fff" d="M69.445 30.555a5.001 5.001 0 0 0-7.071 0L50 42.929 37.626 30.555a5.001 5.001 0 0 0-7.071 7.071L42.929 50 30.555 62.374a5 5 0 1 0 7.072 7.071L50 57.071l12.374 12.374c.977.976 2.256 1.464 3.536 1.464s2.559-.488 3.536-1.464a5 5 0 0 0 0-7.071L57.071 50l12.374-12.374a5 5 0 0 0 0-7.071z"></path>
</svg>
