<?xml version="1.0" standalone="yes"?>
<!DOCTYPE svg PUBLIC "-//W3C//DTD SVG 1.1//EN" "http://www.w3.org/Graphics/SVG/1.1/DTD/svg11.dtd">
<svg viewBox="0 0 100 100" xmlns="http://www.w3.org/2000/svg" version="1.1">
    <path fill="#849b87" d="M80.75 5h-61.5C11.393 5 5 11.393 5 19.25v61.5C5 88.607 11.393 95 19.25 95h61.5C88.607 95 95 88.607 95 80.75v-61.5C95 11.393 88.607 5 80.75 5z"></path>
	<path fill="#fff" d="M69.176 33.86L43.503 59.533l-12.68-12.68a5.001 5.001 0 0 0-7.071 7.071L39.968 70.14c.977.976 2.256 1.464 3.536 1.464s2.559-.488 3.536-1.464l29.208-29.208a5 5 0 0 0 0-7.071 5.002 5.002 0 0 0-7.072-.001z"></path>
</svg>
